<svg width="160" height="30" viewBox="0 0 171 41" fill="none" xmlns="http://www.w3.org/2000/svg">
<rect width="37" height="37" rx="7.04762" fill="#D0FF71"/>
<rect x="14.96" y="5.28564" width="5.67449" height="23.7652" rx="2.83725" transform="rotate(15 14.96 5.28564)" fill="black"/>
<rect x="25.1816" y="14.095" width="5.28571" height="12.3333" rx="2.64286" transform="rotate(90 25.1816 14.095)" fill="black"/>
<circle cx="24.302" cy="25.5473" r="2.64286" fill="black"/>
<path d="M61.3563 32.126L54.1743 31.622L59.8443 2.978L69.9243 2.726L77.0223 31.37L68.6643 32.126L67.9083 27.842H61.9863L61.3563 32.126ZM62.8683 21.542L66.7743 21.416L64.8843 10.916H64.3803L62.8683 21.542ZM77.274 5.624H83.952L84.036 25.112L91.386 25.364V31.664H77.61L77.274 5.624ZM91.7328 5.624H98.4108L98.4948 25.112L105.845 25.364V31.664H92.0688L91.7328 5.624ZM106.528 5.834L112.828 5.708L113.29 31.874L106.276 32L106.528 5.834ZM114.447 20.87L114.321 14.57L129.567 14.444V20.996L114.447 20.87ZM149.664 12.092L142.776 14.99C142.804 14.934 142.818 14.864 142.818 14.78C142.818 14.668 142.804 14.486 142.776 14.234C142.776 13.954 142.748 13.702 142.692 13.478C142.636 13.226 142.552 12.96 142.44 12.68C142.328 12.372 142.174 12.12 141.978 11.924C141.81 11.728 141.558 11.574 141.222 11.462C140.914 11.322 140.564 11.266 140.172 11.294C139.304 11.35 138.632 12.316 138.156 14.192C137.68 16.068 137.47 18.168 137.526 20.492C137.582 22.284 137.848 23.754 138.324 24.902C138.8 26.05 139.444 26.568 140.256 26.456C140.956 26.372 141.558 26.05 142.062 25.49C142.594 24.902 142.986 24.202 143.238 23.39C143.49 22.55 143.672 21.78 143.784 21.08C143.896 20.352 143.952 19.694 143.952 19.106H149.916V32.546H144.036V29.69C143.42 30.698 142.524 31.412 141.348 31.832C140.2 32.252 138.982 32.294 137.694 31.958C136.406 31.594 135.174 30.95 133.998 30.026C132.85 29.074 131.898 27.646 131.142 25.742C130.386 23.81 130.022 21.598 130.05 19.106C130.05 17.65 130.19 16.25 130.47 14.906C130.75 13.534 131.184 12.232 131.772 11C132.36 9.768 133.088 8.704 133.956 7.808C134.824 6.884 135.888 6.156 137.148 5.624C138.408 5.092 139.794 4.84 141.306 4.868C142.398 4.896 143.406 5.092 144.33 5.456C145.282 5.792 146.066 6.226 146.682 6.758C147.298 7.29 147.83 7.892 148.278 8.564C148.726 9.208 149.062 9.838 149.286 10.454C149.51 11.042 149.636 11.588 149.664 12.092ZM160.113 11.294C159.413 11.434 158.839 12.302 158.391 13.898C157.943 15.494 157.705 17.23 157.677 19.106C157.649 20.954 157.873 22.648 158.349 24.188C158.853 25.7 159.553 26.456 160.449 26.456C161.681 26.456 162.507 25.14 162.927 22.508C163.375 19.876 163.319 17.3 162.759 14.78C162.199 12.232 161.317 11.07 160.113 11.294ZM160.911 32.63C159.623 32.714 158.363 32.462 157.131 31.874C155.927 31.258 154.849 30.404 153.897 29.312C152.945 28.22 152.161 26.876 151.545 25.28C150.957 23.656 150.635 21.906 150.579 20.03C150.551 18.714 150.635 17.356 150.831 15.956C151.055 14.556 151.419 13.184 151.923 11.84C152.455 10.496 153.099 9.292 153.855 8.228C154.611 7.164 155.563 6.324 156.711 5.708C157.887 5.064 159.175 4.742 160.575 4.742C161.807 4.77 162.997 5.092 164.145 5.708C165.293 6.324 166.329 7.206 167.253 8.354C168.177 9.474 168.905 10.972 169.437 12.848C169.997 14.696 170.263 16.782 170.235 19.106C170.207 20.702 169.997 22.256 169.605 23.768C169.241 25.28 168.695 26.694 167.967 28.01C167.267 29.326 166.301 30.418 165.069 31.286C163.865 32.126 162.479 32.574 160.911 32.63Z" fill="black"/>
<mask id="mask0_109_5323" style="mask-type:alpha" maskUnits="userSpaceOnUse" x="129" y="4" width="42" height="29">
<path d="M149.499 12.092L142.611 14.99C142.639 14.934 142.653 14.864 142.653 14.78C142.653 14.668 142.639 14.486 142.611 14.234C142.611 13.954 142.583 13.702 142.527 13.478C142.471 13.226 142.387 12.96 142.275 12.68C142.163 12.372 142.009 12.12 141.813 11.924C141.645 11.728 141.393 11.574 141.057 11.462C140.749 11.322 140.399 11.266 140.007 11.294C139.139 11.35 138.467 12.316 137.991 14.192C137.515 16.068 137.305 18.168 137.361 20.492C137.417 22.284 137.683 23.754 138.159 24.902C138.635 26.05 139.279 26.568 140.091 26.456C140.791 26.372 141.393 26.05 141.897 25.49C142.429 24.902 142.821 24.202 143.073 23.39C143.325 22.55 143.507 21.78 143.619 21.08C143.731 20.352 143.787 19.694 143.787 19.106H149.751V32.546H143.871V29.69C143.255 30.698 142.359 31.412 141.183 31.832C140.035 32.252 138.817 32.294 137.529 31.958C136.241 31.594 135.009 30.95 133.833 30.026C132.685 29.074 131.733 27.646 130.977 25.742C130.221 23.81 129.857 21.598 129.885 19.106C129.885 17.65 130.025 16.25 130.305 14.906C130.585 13.534 131.019 12.232 131.607 11C132.195 9.768 132.923 8.704 133.791 7.808C134.659 6.884 135.723 6.156 136.983 5.624C138.243 5.092 139.629 4.84 141.141 4.868C142.233 4.896 143.241 5.092 144.165 5.456C145.117 5.792 145.901 6.226 146.517 6.758C147.133 7.29 147.665 7.892 148.113 8.564C148.561 9.208 148.897 9.838 149.121 10.454C149.345 11.042 149.471 11.588 149.499 12.092ZM159.948 11.294C159.248 11.434 158.674 12.302 158.226 13.898C157.778 15.494 157.54 17.23 157.512 19.106C157.484 20.954 157.708 22.648 158.184 24.188C158.688 25.7 159.388 26.456 160.284 26.456C161.516 26.456 162.342 25.14 162.762 22.508C163.21 19.876 163.154 17.3 162.594 14.78C162.034 12.232 161.152 11.07 159.948 11.294ZM160.746 32.63C159.458 32.714 158.198 32.462 156.966 31.874C155.762 31.258 154.684 30.404 153.732 29.312C152.78 28.22 151.996 26.876 151.38 25.28C150.792 23.656 150.47 21.906 150.414 20.03C150.386 18.714 150.47 17.356 150.666 15.956C150.89 14.556 151.254 13.184 151.758 11.84C152.29 10.496 152.934 9.292 153.69 8.228C154.446 7.164 155.398 6.324 156.546 5.708C157.722 5.064 159.01 4.742 160.41 4.742C161.642 4.77 162.832 5.092 163.98 5.708C165.128 6.324 166.164 7.206 167.088 8.354C168.012 9.474 168.74 10.972 169.272 12.848C169.832 14.696 170.098 16.782 170.07 19.106C170.042 20.702 169.832 22.256 169.44 23.768C169.076 25.28 168.53 26.694 167.802 28.01C167.102 29.326 166.136 30.418 164.904 31.286C163.7 32.126 162.314 32.574 160.746 32.63Z" fill="white"/>
</mask>
<g mask="url(#mask0_109_5323)">
<rect x="127.484" y="22.0073" width="42.0146" height="20.298" transform="rotate(-30 127.484 22.0073)" fill="#D0FF71" fill-opacity="0.59"/>
</g>
</svg>
